<svg xmlns="http://www.w3.org/2000/svg" xmlns:ev="http://www.w3.org/2001/xml-events" xmlns:xlink="http://www.w3.org/1999/xlink" baseProfile="full" height="300" version="1.1" width="500"><defs><style type="text/css"><![CDATA[.axis {font-weight: bold}.tree, .axis {font-size: 14px; text-anchor:middle}.edge {stroke: black; fill: none}.node > .sym {fill: black; stroke: none}.tree text {dominant-baseline: middle}.tree .lab.lft {text-anchor: end}.tree .lab.rgt {text-anchor: start}.mut {fill: red; font-style: italic}]]></style></defs><g class="tree t0"><g class="node n8 p0 root" transform="translate(240.0 30.0)"><g class="a8 node n5 p0" transform="translate(-110.0 232.171)"><g class="a5 leaf node n0 p0 sample" transform="translate(-40.0 7.8295)"><path class="edge" d="M 0 0 V -7.8295 H 40.0"/><circle class="sym" cx="0" cy="0" r="3"/><text class="lab" transform="translate(0 12)">0: (0.00, 5)</text></g><g class="a5 leaf node n2 p0 sample" transform="translate(40.0 7.8295)"><path class="edge" d="M 0 0 V -7.8295 H -40.0"/><circle class="sym" cx="0" cy="0" r="3"/><text class="lab" transform="translate(0 12)">2: (0.00, 5)</text></g><path class="edge" d="M 0 0 V -232.171 H 110.0"/><circle class="sym" cx="0" cy="0" r="3"/><text class="lab lft" transform="translate(-3 -6)">5: (0.20, 8)</text></g><g class="a8 node n7 p0" transform="translate(110.0 204.739)"><g class="a7 leaf node n4 p0 sample" transform="translate(60.0 35.2609)"><path class="edge" d="M 0 0 V -35.2609 H -60.0"/><circle class="sym" cx="0" cy="0" r="3"/><text class="lab" transform="translate(0 12)">4: (0.00, 7)</text></g><g class="a7 node n6 p0" transform="translate(-60.0 10.6039)"><g class="a6 leaf node n1 p0 sample" transform="translate(-40.0 24.657)"><path class="edge" d="M 0 0 V -24.657 H 40.0"/><circle class="sym" cx="0" cy="0" r="3"/><text class="lab" transform="translate(0 12)">1: (0.00, 6)</text></g><g class="a6 leaf node n3 p0 sample" transform="translate(40.0 24.657)"><path class="edge" d="M 0 0 V -24.657 H -40.0"/><circle class="sym" cx="0" cy="0" r="3"/><text class="lab" transform="translate(0 12)">3: (0.00, 6)</text></g><path class="edge" d="M 0 0 V -10.6039 H 60.0"/><circle class="sym" cx="0" cy="0" r="3"/><text class="lab lft" transform="translate(-3 -6)">6: (0.62, 7)</text></g><path class="edge" d="M 0 0 V -204.739 H -110.0"/><circle class="sym" cx="0" cy="0" r="3"/><text class="lab rgt" transform="translate(3 -6)">7: (0.89, 8)</text></g><circle class="sym" cx="0" cy="0" r="3"/><text class="lab" transform="translate(0 -10)">8: (6.04, -1)</text></g></g></svg>